<?xml version="1.0" encoding="utf-8"?>
<!-- Generator: Adobe Illustrator 17.0.0, SVG Export Plug-In . SVG Version: 6.00 Build 0)  -->
<!DOCTYPE svg PUBLIC "-//W3C//DTD SVG 1.1//EN" "http://www.w3.org/Graphics/SVG/1.1/DTD/svg11.dtd">
<svg version="1.1"
	 id="svg2" sodipodi:docname="lemmling_Simple_cartoon_mouse_1_black_white_line_art_coloring_book_colouring.svg" inkscape:version="0.48.1 " xmlns:sodipodi="http://sodipodi.sourceforge.net/DTD/sodipodi-0.dtd" xmlns:svg="http://www.w3.org/2000/svg" xmlns:inkscape="http://www.inkscape.org/namespaces/inkscape" xmlns:dc="http://purl.org/dc/elements/1.1/" xmlns:cc="http://creativecommons.org/ns#" xmlns:rdf="http://www.w3.org/1999/02/22-rdf-syntax-ns#"
	 xmlns="http://www.w3.org/2000/svg" xmlns:xlink="http://www.w3.org/1999/xlink" x="0px" y="0px" width="330.479px"
	 height="325.951px" viewBox="0 0 330.479 325.951" enable-background="new 0 0 330.479 325.951" xml:space="preserve">
<sodipodi:namedview  inkscape:window-width="800" inkscape:window-height="645" inkscape:pageshadow="2" inkscape:pageopacity="0" id="namedview25" borderopacity="1" bordercolor="#666666" objecttolerance="10" pagecolor="#ffffff" gridtolerance="10" guidetolerance="10" inkscape:cy="154.59542" inkscape:cx="157.08606" inkscape:zoom="1.7855425" showgrid="false" inkscape:current-layer="svg2" inkscape:window-maximized="0" inkscape:window-y="0" inkscape:window-x="0">
	</sodipodi:namedview>
<path id="path3264" fill="#FFFFFF" stroke="#000000" stroke-width="4" d="M227.127,51.998
	c-1.889-23.292-78.061-85.615-144.79-22.663S9.942,62.7,3.647,63.959c-6.295,1.259,6.266,14.893,23.922,12.59
	c43.437-5.666,72.395-59.805,112.684-59.175c40.598,0.634,62.323,35.883,62.323,35.883L227.127,51.998z"/>
<path id="path2383" fill="#FFFFFF" stroke="#000000" stroke-width="4" stroke-linecap="round" d="M317.149,151.462
	c0,56.989-61.818,161.787-103.242,161.787c-42.585,0-103.242-104.798-103.242-161.787S156.918,48.221,213.907,48.221
	S317.149,94.473,317.149,151.462z"/>
<path id="path2386" fill="#FFFFFF" stroke="#000000" stroke-width="4" stroke-linecap="round" d="M285.667,233.045
	c24.03-2.365,42.813-22.633,42.813-47.281c0-26.236-21.295-47.531-47.531-47.531c-26.236,0-47.531,21.295-47.531,47.531
	c0,1.844,0.108,3.679,0.313,5.469"/>
<path id="path2388" fill="#FFFFFF" stroke="#000000" stroke-width="4" stroke-linecap="round" d="M190.854,191.763
	c0.247-1.962,0.375-3.972,0.375-6c0-26.236-21.264-47.531-47.5-47.531c-26.236,0-47.531,21.295-47.531,47.531
	c0,25.257,19.714,45.929,44.594,47.438"/>
<path id="path2390" d="M225.322,291.604c0,6.127-7.334,13.462-11.1,13.462c-4.238,0-11.1-7.335-11.1-13.462
	c0-6.127,4.973-5.432,11.1-5.432C220.349,286.172,225.322,285.477,225.322,291.604z"/>
<path id="path2397" stroke="#000000" stroke-width="2" stroke-linecap="round" d="M206.234,254.019
	c0.005,11.582-8.605,20.974-19.227,20.974c-10.622,0-19.232-9.392-19.227-20.974c-0.005-11.582,8.605-20.974,19.227-20.974
	C197.629,233.045,206.239,242.437,206.234,254.019z"/>
<g id="g3221" transform="matrix(1.3917402,0,0,1.4058212,-239.24654,-659.88464)">
	<path id="path2445" fill="none" stroke="#000000" stroke-width="2.8597" stroke-linecap="round" d="M340.571,672.761
		c32.735-15.109,47.844-1.259,47.844-1.259"/>
	<path id="path2447" fill="none" stroke="#000000" stroke-width="2.8597" stroke-linecap="round" d="M337.424,678.426
		c23.922-15.109,44.696,9.443,44.696,9.443"/>
	<path id="path2449" fill="none" stroke="#000000" stroke-width="2.8597" stroke-linecap="round" d="M337.424,681.574
		c25.181-12.59,29.588,18.256,29.588,18.256"/>
</g>
<g id="g3384" transform="matrix(-1.3917402,0,0,1.4058212,667.06082,-659.88464)">
	<path id="path3386" fill="none" stroke="#000000" stroke-width="2.8597" stroke-linecap="round" d="M340.571,672.761
		c32.735-15.109,47.844-1.259,47.844-1.259"/>
	<path id="path3388" fill="none" stroke="#000000" stroke-width="2.8597" stroke-linecap="round" d="M337.424,678.426
		c23.922-15.109,44.696,9.443,44.696,9.443"/>
	<path id="path3390" fill="none" stroke="#000000" stroke-width="2.8597" stroke-linecap="round" d="M337.424,681.574
		c25.181-12.59,29.588,18.256,29.588,18.256"/>
</g>
<path id="path2397_1_" stroke="#000000" stroke-width="2" stroke-linecap="round" d="M259.859,254.019
	c0.005,11.582-8.605,20.974-19.227,20.974c-10.622,0-19.232-9.392-19.227-20.974c-0.005-11.582,8.605-20.974,19.227-20.974
	C251.254,233.045,259.864,242.437,259.859,254.019z"/>
<path stroke="#000000" stroke-width="2" stroke-linecap="round" d="M205.838,249.757c0,0,7.863-8.021,15.567,0
	c7.704,8.021,0,4.262,0,4.262s-6.796-11.884-15.171,0c-8.375,11.884-0.018,0.88-0.018,0.88"/>
<line fill="none" stroke="#000000" stroke-width="4" stroke-linecap="round" x1="259.859" y1="254.019" x2="283.684" y2="249.405"/>
<line fill="none" stroke="#000000" stroke-width="4" stroke-linecap="round" x1="167.78" y1="254.82" x2="143.714" y2="249.405"/>
<text transform="matrix(1 0 0 1 181.0743 143.446)" fill="#FFFFFF" stroke="#000000" stroke-width="3" stroke-miterlimit="10" font-family="'Calibri'" font-size="120">4</text>
</svg>
